<?xml version="1.0" encoding="UTF-8" standalone="no"?>
<!DOCTYPE svg PUBLIC "-//W3C//DTD SVG 1.1//EN"
 "http://www.w3.org/Graphics/SVG/1.1/DTD/svg11.dtd">
<!-- Generated by graphviz version 2.40.1 (20161225.0304)
 -->
<!-- Title: Database Structure Pages: 1 -->
<svg width="168pt" height="1241pt"
 viewBox="0.00 0.00 168.00 1240.50" xmlns="http://www.w3.org/2000/svg" xmlns:xlink="http://www.w3.org/1999/xlink">
<g id="graph0" class="graph" transform="scale(1 1) rotate(0) translate(4 1236.5)">
<title>Database Structure</title>
<polygon fill="#ffffff" stroke="transparent" points="-4,4 -4,-1236.5 164,-1236.5 164,4 -4,4"/>
<text text-anchor="middle" x="80" y="-1217.3" font-family="Helvetica,sans-Serif" font-size="14.00" fill="#000000">ER Diagram: Project_3</text>
<!-- activity_by_age -->
<g id="node1" class="node">
<title>activity_by_age</title>
<polygon fill="#dddddd" stroke="transparent" points="21,-129.5 21,-150.5 140,-150.5 140,-129.5 21,-129.5"/>
<polygon fill="none" stroke="#000000" points="21,-129.5 21,-150.5 140,-150.5 140,-129.5 21,-129.5"/>
<text text-anchor="start" x="35.5" y="-136.3" font-family="Times,serif" font-size="14.00" fill="#000000">activity_by_age</text>
<polygon fill="none" stroke="#000000" points="21,-108.5 21,-129.5 140,-129.5 140,-108.5 21,-108.5"/>
<text text-anchor="start" x="24" y="-116.3" font-family="Times,serif" font-size="14.00" fill="#000000">Age group:</text>
<text text-anchor="start" x="88" y="-116.3" font-family="Helvetica,sans-Serif" font-style="oblique" font-size="10.00" fill="#000000">VARCHAR</text>
<polygon fill="none" stroke="#000000" points="21,-87.5 21,-108.5 140,-108.5 140,-87.5 21,-87.5"/>
<text text-anchor="start" x="43" y="-95.3" font-family="Times,serif" font-size="14.00" fill="#000000">Yearly:</text>
<text text-anchor="start" x="85" y="-95.3" font-family="Helvetica,sans-Serif" font-style="oblique" font-size="10.00" fill="#000000">FLOAT</text>
<polygon fill="none" stroke="#000000" points="21,-66.5 21,-87.5 140,-87.5 140,-66.5 21,-66.5"/>
<text text-anchor="start" x="46.5" y="-74.3" font-family="Times,serif" font-size="14.00" fill="#000000">Daily:</text>
<text text-anchor="start" x="81.5" y="-74.3" font-family="Helvetica,sans-Serif" font-style="oblique" font-size="10.00" fill="#000000">FLOAT</text>
<polygon fill="none" stroke="#000000" points="21,-45.5 21,-66.5 140,-66.5 140,-45.5 21,-45.5"/>
<text text-anchor="start" x="40" y="-53.3" font-family="Times,serif" font-size="14.00" fill="#000000">Weekly:</text>
<text text-anchor="start" x="88" y="-53.3" font-family="Helvetica,sans-Serif" font-style="oblique" font-size="10.00" fill="#000000">FLOAT</text>
<polygon fill="none" stroke="#000000" points="21,-24.5 21,-45.5 140,-45.5 140,-24.5 21,-24.5"/>
<text text-anchor="start" x="37.5" y="-32.3" font-family="Times,serif" font-size="14.00" fill="#000000">Monthly:</text>
<text text-anchor="start" x="90.5" y="-32.3" font-family="Helvetica,sans-Serif" font-style="oblique" font-size="10.00" fill="#000000">FLOAT</text>
<polygon fill="none" stroke="#000000" points="21,-3.5 21,-24.5 140,-24.5 140,-3.5 21,-3.5"/>
<text text-anchor="start" x="35" y="-11.3" font-family="Times,serif" font-size="14.00" fill="#000000">Quarterly:</text>
<text text-anchor="start" x="93" y="-11.3" font-family="Helvetica,sans-Serif" font-style="oblique" font-size="10.00" fill="#000000">FLOAT</text>
</g>
<!-- activity_by_ccaa -->
<g id="node2" class="node">
<title>activity_by_ccaa</title>
<polygon fill="#dddddd" stroke="transparent" points="23,-302.5 23,-323.5 138,-323.5 138,-302.5 23,-302.5"/>
<polygon fill="none" stroke="#000000" points="23,-302.5 23,-323.5 138,-323.5 138,-302.5 23,-302.5"/>
<text text-anchor="start" x="26" y="-309.3" font-family="Times,serif" font-size="14.00" fill="#000000">activity_by_CCAA</text>
<polygon fill="none" stroke="#000000" points="23,-281.5 23,-302.5 138,-302.5 138,-281.5 23,-281.5"/>
<text text-anchor="start" x="34.5" y="-289.3" font-family="Times,serif" font-size="14.00" fill="#000000">CCAA:</text>
<text text-anchor="start" x="77.5" y="-289.3" font-family="Helvetica,sans-Serif" font-style="oblique" font-size="10.00" fill="#000000">VARCHAR</text>
<polygon fill="none" stroke="#000000" points="23,-260.5 23,-281.5 138,-281.5 138,-260.5 23,-260.5"/>
<text text-anchor="start" x="43" y="-268.3" font-family="Times,serif" font-size="14.00" fill="#000000">Yearly:</text>
<text text-anchor="start" x="85" y="-268.3" font-family="Helvetica,sans-Serif" font-style="oblique" font-size="10.00" fill="#000000">FLOAT</text>
<polygon fill="none" stroke="#000000" points="23,-239.5 23,-260.5 138,-260.5 138,-239.5 23,-239.5"/>
<text text-anchor="start" x="46.5" y="-247.3" font-family="Times,serif" font-size="14.00" fill="#000000">Daily:</text>
<text text-anchor="start" x="81.5" y="-247.3" font-family="Helvetica,sans-Serif" font-style="oblique" font-size="10.00" fill="#000000">FLOAT</text>
<polygon fill="none" stroke="#000000" points="23,-218.5 23,-239.5 138,-239.5 138,-218.5 23,-218.5"/>
<text text-anchor="start" x="40" y="-226.3" font-family="Times,serif" font-size="14.00" fill="#000000">Weekly:</text>
<text text-anchor="start" x="88" y="-226.3" font-family="Helvetica,sans-Serif" font-style="oblique" font-size="10.00" fill="#000000">FLOAT</text>
<polygon fill="none" stroke="#000000" points="23,-197.5 23,-218.5 138,-218.5 138,-197.5 23,-197.5"/>
<text text-anchor="start" x="37.5" y="-205.3" font-family="Times,serif" font-size="14.00" fill="#000000">Monthly:</text>
<text text-anchor="start" x="90.5" y="-205.3" font-family="Helvetica,sans-Serif" font-style="oblique" font-size="10.00" fill="#000000">FLOAT</text>
<polygon fill="none" stroke="#000000" points="23,-176.5 23,-197.5 138,-197.5 138,-176.5 23,-176.5"/>
<text text-anchor="start" x="35" y="-184.3" font-family="Times,serif" font-size="14.00" fill="#000000">Quarterly:</text>
<text text-anchor="start" x="93" y="-184.3" font-family="Helvetica,sans-Serif" font-style="oblique" font-size="10.00" fill="#000000">FLOAT</text>
</g>
<!-- activity_by_empl -->
<g id="node3" class="node">
<title>activity_by_empl</title>
<polygon fill="#dddddd" stroke="transparent" points="14,-475.5 14,-496.5 146,-496.5 146,-475.5 14,-475.5"/>
<polygon fill="none" stroke="#000000" points="14,-475.5 14,-496.5 146,-496.5 146,-475.5 14,-475.5"/>
<text text-anchor="start" x="31" y="-482.3" font-family="Times,serif" font-size="14.00" fill="#000000">activity_by_empl</text>
<polygon fill="none" stroke="#000000" points="14,-454.5 14,-475.5 146,-475.5 146,-454.5 14,-454.5"/>
<text text-anchor="start" x="17" y="-462.3" font-family="Times,serif" font-size="14.00" fill="#000000">Employment:</text>
<text text-anchor="start" x="94" y="-462.3" font-family="Helvetica,sans-Serif" font-style="oblique" font-size="10.00" fill="#000000">VARCHAR</text>
<polygon fill="none" stroke="#000000" points="14,-433.5 14,-454.5 146,-454.5 146,-433.5 14,-433.5"/>
<text text-anchor="start" x="42.5" y="-441.3" font-family="Times,serif" font-size="14.00" fill="#000000">Yearly:</text>
<text text-anchor="start" x="84.5" y="-441.3" font-family="Helvetica,sans-Serif" font-style="oblique" font-size="10.00" fill="#000000">FLOAT</text>
<polygon fill="none" stroke="#000000" points="14,-412.5 14,-433.5 146,-433.5 146,-412.5 14,-412.5"/>
<text text-anchor="start" x="46" y="-420.3" font-family="Times,serif" font-size="14.00" fill="#000000">Daily:</text>
<text text-anchor="start" x="81" y="-420.3" font-family="Helvetica,sans-Serif" font-style="oblique" font-size="10.00" fill="#000000">FLOAT</text>
<polygon fill="none" stroke="#000000" points="14,-391.5 14,-412.5 146,-412.5 146,-391.5 14,-391.5"/>
<text text-anchor="start" x="39.5" y="-399.3" font-family="Times,serif" font-size="14.00" fill="#000000">Weekly:</text>
<text text-anchor="start" x="87.5" y="-399.3" font-family="Helvetica,sans-Serif" font-style="oblique" font-size="10.00" fill="#000000">FLOAT</text>
<polygon fill="none" stroke="#000000" points="14,-370.5 14,-391.5 146,-391.5 146,-370.5 14,-370.5"/>
<text text-anchor="start" x="37" y="-378.3" font-family="Times,serif" font-size="14.00" fill="#000000">Monthly:</text>
<text text-anchor="start" x="90" y="-378.3" font-family="Helvetica,sans-Serif" font-style="oblique" font-size="10.00" fill="#000000">FLOAT</text>
<polygon fill="none" stroke="#000000" points="14,-349.5 14,-370.5 146,-370.5 146,-349.5 14,-349.5"/>
<text text-anchor="start" x="34.5" y="-357.3" font-family="Times,serif" font-size="14.00" fill="#000000">Quarterly:</text>
<text text-anchor="start" x="92.5" y="-357.3" font-family="Helvetica,sans-Serif" font-style="oblique" font-size="10.00" fill="#000000">FLOAT</text>
</g>
<!-- athetes_medals -->
<g id="node4" class="node">
<title>athetes_medals</title>
<polygon fill="#dddddd" stroke="transparent" points="21,-712.5 21,-733.5 140,-733.5 140,-712.5 21,-712.5"/>
<polygon fill="none" stroke="#000000" points="21,-712.5 21,-733.5 140,-733.5 140,-712.5 21,-712.5"/>
<text text-anchor="start" x="37.5" y="-719.3" font-family="Times,serif" font-size="14.00" fill="#000000">athetes_medals</text>
<polygon fill="none" stroke="#000000" points="21,-691.5 21,-712.5 140,-712.5 140,-691.5 21,-691.5"/>
<text text-anchor="start" x="54" y="-699.3" font-family="Times,serif" font-size="14.00" fill="#000000">Index:</text>
<text text-anchor="start" x="90" y="-699.3" font-family="Helvetica,sans-Serif" font-style="oblique" font-size="10.00" fill="#000000">INT</text>
<polygon fill="none" stroke="#000000" points="21,-670.5 21,-691.5 140,-691.5 140,-670.5 21,-670.5"/>
<text text-anchor="start" x="24" y="-678.3" font-family="Times,serif" font-size="14.00" fill="#000000">nationality:</text>
<text text-anchor="start" x="88" y="-678.3" font-family="Helvetica,sans-Serif" font-style="oblique" font-size="10.00" fill="#000000">VARCHAR</text>
<polygon fill="none" stroke="#000000" points="21,-649.5 21,-670.5 140,-670.5 140,-649.5 21,-649.5"/>
<text text-anchor="start" x="36.5" y="-657.3" font-family="Times,serif" font-size="14.00" fill="#000000">height:</text>
<text text-anchor="start" x="75.5" y="-657.3" font-family="Helvetica,sans-Serif" font-style="oblique" font-size="10.00" fill="#000000">VARCHAR</text>
<polygon fill="none" stroke="#000000" points="21,-628.5 21,-649.5 140,-649.5 140,-628.5 21,-628.5"/>
<text text-anchor="start" x="35" y="-636.3" font-family="Times,serif" font-size="14.00" fill="#000000">weight:</text>
<text text-anchor="start" x="77" y="-636.3" font-family="Helvetica,sans-Serif" font-style="oblique" font-size="10.00" fill="#000000">VARCHAR</text>
<polygon fill="none" stroke="#000000" points="21,-607.5 21,-628.5 140,-628.5 140,-607.5 21,-607.5"/>
<text text-anchor="start" x="57.5" y="-615.3" font-family="Times,serif" font-size="14.00" fill="#000000">gold:</text>
<text text-anchor="start" x="86.5" y="-615.3" font-family="Helvetica,sans-Serif" font-style="oblique" font-size="10.00" fill="#000000">INT</text>
<polygon fill="none" stroke="#000000" points="21,-586.5 21,-607.5 140,-607.5 140,-586.5 21,-586.5"/>
<text text-anchor="start" x="54.5" y="-594.3" font-family="Times,serif" font-size="14.00" fill="#000000">silver:</text>
<text text-anchor="start" x="89.5" y="-594.3" font-family="Helvetica,sans-Serif" font-style="oblique" font-size="10.00" fill="#000000">INT</text>
<polygon fill="none" stroke="#000000" points="21,-565.5 21,-586.5 140,-586.5 140,-565.5 21,-565.5"/>
<text text-anchor="start" x="51" y="-573.3" font-family="Times,serif" font-size="14.00" fill="#000000">bronze:</text>
<text text-anchor="start" x="93" y="-573.3" font-family="Helvetica,sans-Serif" font-style="oblique" font-size="10.00" fill="#000000">INT</text>
<polygon fill="none" stroke="#000000" points="21,-544.5 21,-565.5 140,-565.5 140,-544.5 21,-544.5"/>
<text text-anchor="start" x="50" y="-552.3" font-family="Times,serif" font-size="14.00" fill="#000000">medals:</text>
<text text-anchor="start" x="94" y="-552.3" font-family="Helvetica,sans-Serif" font-style="oblique" font-size="10.00" fill="#000000">INT</text>
<polygon fill="none" stroke="#000000" points="21,-523.5 21,-544.5 140,-544.5 140,-523.5 21,-523.5"/>
<text text-anchor="start" x="32.5" y="-531.3" font-family="Times,serif" font-size="14.00" fill="#000000">country:</text>
<text text-anchor="start" x="79.5" y="-531.3" font-family="Helvetica,sans-Serif" font-style="oblique" font-size="10.00" fill="#000000">VARCHAR</text>
</g>
<!-- cycling_medals -->
<g id="node5" class="node">
<title>cycling_medals</title>
<polygon fill="#dddddd" stroke="transparent" points="21,-948.5 21,-969.5 140,-969.5 140,-948.5 21,-948.5"/>
<polygon fill="none" stroke="#000000" points="21,-948.5 21,-969.5 140,-969.5 140,-948.5 21,-948.5"/>
<text text-anchor="start" x="36.5" y="-955.3" font-family="Times,serif" font-size="14.00" fill="#000000">cycling_medals</text>
<polygon fill="none" stroke="#000000" points="21,-927.5 21,-948.5 140,-948.5 140,-927.5 21,-927.5"/>
<text text-anchor="start" x="54" y="-935.3" font-family="Times,serif" font-size="14.00" fill="#000000">Index:</text>
<text text-anchor="start" x="90" y="-935.3" font-family="Helvetica,sans-Serif" font-style="oblique" font-size="10.00" fill="#000000">INT</text>
<polygon fill="none" stroke="#000000" points="21,-906.5 21,-927.5 140,-927.5 140,-906.5 21,-906.5"/>
<text text-anchor="start" x="24" y="-914.3" font-family="Times,serif" font-size="14.00" fill="#000000">nationality:</text>
<text text-anchor="start" x="88" y="-914.3" font-family="Helvetica,sans-Serif" font-style="oblique" font-size="10.00" fill="#000000">VARCHAR</text>
<polygon fill="none" stroke="#000000" points="21,-885.5 21,-906.5 140,-906.5 140,-885.5 21,-885.5"/>
<text text-anchor="start" x="36.5" y="-893.3" font-family="Times,serif" font-size="14.00" fill="#000000">height:</text>
<text text-anchor="start" x="75.5" y="-893.3" font-family="Helvetica,sans-Serif" font-style="oblique" font-size="10.00" fill="#000000">VARCHAR</text>
<polygon fill="none" stroke="#000000" points="21,-864.5 21,-885.5 140,-885.5 140,-864.5 21,-864.5"/>
<text text-anchor="start" x="35" y="-872.3" font-family="Times,serif" font-size="14.00" fill="#000000">weight:</text>
<text text-anchor="start" x="77" y="-872.3" font-family="Helvetica,sans-Serif" font-style="oblique" font-size="10.00" fill="#000000">VARCHAR</text>
<polygon fill="none" stroke="#000000" points="21,-843.5 21,-864.5 140,-864.5 140,-843.5 21,-843.5"/>
<text text-anchor="start" x="57.5" y="-851.3" font-family="Times,serif" font-size="14.00" fill="#000000">gold:</text>
<text text-anchor="start" x="86.5" y="-851.3" font-family="Helvetica,sans-Serif" font-style="oblique" font-size="10.00" fill="#000000">INT</text>
<polygon fill="none" stroke="#000000" points="21,-822.5 21,-843.5 140,-843.5 140,-822.5 21,-822.5"/>
<text text-anchor="start" x="54.5" y="-830.3" font-family="Times,serif" font-size="14.00" fill="#000000">silver:</text>
<text text-anchor="start" x="89.5" y="-830.3" font-family="Helvetica,sans-Serif" font-style="oblique" font-size="10.00" fill="#000000">INT</text>
<polygon fill="none" stroke="#000000" points="21,-801.5 21,-822.5 140,-822.5 140,-801.5 21,-801.5"/>
<text text-anchor="start" x="51" y="-809.3" font-family="Times,serif" font-size="14.00" fill="#000000">bronze:</text>
<text text-anchor="start" x="93" y="-809.3" font-family="Helvetica,sans-Serif" font-style="oblique" font-size="10.00" fill="#000000">INT</text>
<polygon fill="none" stroke="#000000" points="21,-780.5 21,-801.5 140,-801.5 140,-780.5 21,-780.5"/>
<text text-anchor="start" x="50" y="-788.3" font-family="Times,serif" font-size="14.00" fill="#000000">medals:</text>
<text text-anchor="start" x="94" y="-788.3" font-family="Helvetica,sans-Serif" font-style="oblique" font-size="10.00" fill="#000000">INT</text>
<polygon fill="none" stroke="#000000" points="21,-759.5 21,-780.5 140,-780.5 140,-759.5 21,-759.5"/>
<text text-anchor="start" x="32.5" y="-767.3" font-family="Times,serif" font-size="14.00" fill="#000000">country:</text>
<text text-anchor="start" x="79.5" y="-767.3" font-family="Helvetica,sans-Serif" font-style="oblique" font-size="10.00" fill="#000000">VARCHAR</text>
</g>
<!-- rio_database -->
<g id="node6" class="node">
<title>rio_database</title>
<polygon fill="#dddddd" stroke="transparent" points="21,-1184.5 21,-1205.5 140,-1205.5 140,-1184.5 21,-1184.5"/>
<polygon fill="none" stroke="#000000" points="21,-1184.5 21,-1205.5 140,-1205.5 140,-1184.5 21,-1184.5"/>
<text text-anchor="start" x="45" y="-1191.3" font-family="Times,serif" font-size="14.00" fill="#000000">rio_database</text>
<polygon fill="none" stroke="#000000" points="21,-1163.5 21,-1184.5 140,-1184.5 140,-1163.5 21,-1163.5"/>
<text text-anchor="start" x="54" y="-1171.3" font-family="Times,serif" font-size="14.00" fill="#000000">Index:</text>
<text text-anchor="start" x="90" y="-1171.3" font-family="Helvetica,sans-Serif" font-style="oblique" font-size="10.00" fill="#000000">INT</text>
<polygon fill="none" stroke="#000000" points="21,-1142.5 21,-1163.5 140,-1163.5 140,-1142.5 21,-1142.5"/>
<text text-anchor="start" x="24" y="-1150.3" font-family="Times,serif" font-size="14.00" fill="#000000">nationality:</text>
<text text-anchor="start" x="88" y="-1150.3" font-family="Helvetica,sans-Serif" font-style="oblique" font-size="10.00" fill="#000000">VARCHAR</text>
<polygon fill="none" stroke="#000000" points="21,-1121.5 21,-1142.5 140,-1142.5 140,-1121.5 21,-1121.5"/>
<text text-anchor="start" x="36.5" y="-1129.3" font-family="Times,serif" font-size="14.00" fill="#000000">height:</text>
<text text-anchor="start" x="75.5" y="-1129.3" font-family="Helvetica,sans-Serif" font-style="oblique" font-size="10.00" fill="#000000">VARCHAR</text>
<polygon fill="none" stroke="#000000" points="21,-1100.5 21,-1121.5 140,-1121.5 140,-1100.5 21,-1100.5"/>
<text text-anchor="start" x="35" y="-1108.3" font-family="Times,serif" font-size="14.00" fill="#000000">weight:</text>
<text text-anchor="start" x="77" y="-1108.3" font-family="Helvetica,sans-Serif" font-style="oblique" font-size="10.00" fill="#000000">VARCHAR</text>
<polygon fill="none" stroke="#000000" points="21,-1079.5 21,-1100.5 140,-1100.5 140,-1079.5 21,-1079.5"/>
<text text-anchor="start" x="57.5" y="-1087.3" font-family="Times,serif" font-size="14.00" fill="#000000">gold:</text>
<text text-anchor="start" x="86.5" y="-1087.3" font-family="Helvetica,sans-Serif" font-style="oblique" font-size="10.00" fill="#000000">INT</text>
<polygon fill="none" stroke="#000000" points="21,-1058.5 21,-1079.5 140,-1079.5 140,-1058.5 21,-1058.5"/>
<text text-anchor="start" x="54.5" y="-1066.3" font-family="Times,serif" font-size="14.00" fill="#000000">silver:</text>
<text text-anchor="start" x="89.5" y="-1066.3" font-family="Helvetica,sans-Serif" font-style="oblique" font-size="10.00" fill="#000000">INT</text>
<polygon fill="none" stroke="#000000" points="21,-1037.5 21,-1058.5 140,-1058.5 140,-1037.5 21,-1037.5"/>
<text text-anchor="start" x="51" y="-1045.3" font-family="Times,serif" font-size="14.00" fill="#000000">bronze:</text>
<text text-anchor="start" x="93" y="-1045.3" font-family="Helvetica,sans-Serif" font-style="oblique" font-size="10.00" fill="#000000">INT</text>
<polygon fill="none" stroke="#000000" points="21,-1016.5 21,-1037.5 140,-1037.5 140,-1016.5 21,-1016.5"/>
<text text-anchor="start" x="50" y="-1024.3" font-family="Times,serif" font-size="14.00" fill="#000000">medals:</text>
<text text-anchor="start" x="94" y="-1024.3" font-family="Helvetica,sans-Serif" font-style="oblique" font-size="10.00" fill="#000000">INT</text>
<polygon fill="none" stroke="#000000" points="21,-995.5 21,-1016.5 140,-1016.5 140,-995.5 21,-995.5"/>
<text text-anchor="start" x="32.5" y="-1003.3" font-family="Times,serif" font-size="14.00" fill="#000000">country:</text>
<text text-anchor="start" x="79.5" y="-1003.3" font-family="Helvetica,sans-Serif" font-style="oblique" font-size="10.00" fill="#000000">VARCHAR</text>
</g>
</g>
</svg>
